<svg width="2000px" height="1148px"
 viewBox="0.00 0.00 930.11 533.84" xmlns="http://www.w3.org/2000/svg" xmlns:xlink="http://www.w3.org/1999/xlink">
<g id="graph0" class="graph" transform="scale(1.0 1.0) rotate(0) translate(4 529.84)">
<title>ContextMapGraph</title>
<polygon fill="white" stroke="transparent" points="-4,4 -4,-529.84 926.11,-529.84 926.11,4 -4,4"/>
<!-- CatalogProductosContext -->
<g id="node1" class="node">
<title>CatalogProductosContext</title>
<polygon fill="none" stroke="black" stroke-width="2" points="350.16,-464.76 353.55,-467.49 356.46,-470.23 358.86,-472.99 360.76,-475.73 362.13,-478.47 362.97,-481.17 363.28,-483.84 363.04,-486.47 362.26,-489.03 360.94,-491.54 359.06,-493.97 356.65,-496.32 353.7,-498.58 350.23,-500.75 346.23,-502.82 341.73,-504.79 336.73,-506.64 331.26,-508.38 325.32,-510 318.94,-511.5 312.15,-512.89 304.95,-514.14 297.38,-515.28 289.46,-516.29 281.23,-517.17 272.69,-517.94 263.9,-518.58 254.87,-519.1 245.64,-519.51 236.23,-519.8 226.69,-519.98 217.03,-520.06 207.3,-520.02 197.53,-519.89 187.74,-519.65 177.98,-519.33 168.26,-518.91 158.63,-518.4 149.1,-517.81 139.72,-517.14 130.51,-516.4 121.49,-515.58 112.69,-514.69 104.14,-513.73 95.86,-512.7 87.88,-511.62 80.2,-510.47 72.86,-509.26 65.86,-508 59.23,-506.68 52.99,-505.31 47.13,-503.89 41.68,-502.41 36.65,-500.88 32.04,-499.31 27.86,-497.69 24.11,-496.02 20.81,-494.3 17.95,-492.54 15.54,-490.73 13.57,-488.88 12.05,-486.99 10.98,-485.06 10.35,-483.09 10.15,-481.08 10.39,-479.05 11.06,-476.98 12.16,-474.88 13.67,-472.76 15.59,-470.63 17.91,-468.47 20.62,-466.31 23.72,-464.14 27.2,-461.97 31.04,-459.81 35.24,-457.65 39.79,-455.52 44.67,-453.42 49.88,-451.35 55.4,-449.32 61.22,-447.33 67.33,-445.41 73.72,-443.55 80.38,-441.76 87.28,-440.05 94.43,-438.43 101.8,-436.91 109.38,-435.49 117.15,-434.19 125.11,-433 133.23,-431.94 141.5,-431.01 149.89,-430.22 158.41,-429.58 167.01,-429.09 175.7,-428.75 184.44,-428.56 193.21,-428.54 202.01,-428.68 210.8,-428.98 219.56,-429.45 228.27,-430.09 236.92,-430.88 245.47,-431.84 253.9,-432.96 262.19,-434.23 270.32,-435.66 278.25,-437.23 285.98,-438.94 293.46,-440.79 300.69,-442.76 307.62,-444.86 314.25,-447.06 320.55,-449.36 326.49,-451.76 332.06,-454.24 337.23,-456.79 341.98,-459.4 346.3,-462.06 350.16,-464.76"/>
<text text-anchor="middle" x="181.76" y="-473.27" font-family="sans-serif" font-size="16.00">CatalogProductosContext</text>
</g>
<!-- GestionOrdenesContext -->
<g id="node2" class="node">
<title>GestionOrdenesContext</title>
<polygon fill="none" stroke="black" stroke-width="2" points="204.1,-288.09 215,-288.43 225.76,-288.88 236.36,-289.45 246.74,-290.14 256.86,-290.94 266.68,-291.85 276.17,-292.87 285.28,-293.99 293.99,-295.22 302.26,-296.54 310.07,-297.96 317.38,-299.46 324.18,-301.06 330.44,-302.74 336.14,-304.49 341.28,-306.32 345.84,-308.21 349.81,-310.17 353.2,-312.18 355.99,-314.25 358.19,-316.36 359.8,-318.51 360.84,-320.7 361.3,-322.92 361.2,-325.16 360.56,-327.41 359.4,-329.68 357.72,-331.95 355.55,-334.22 352.92,-336.49 349.83,-338.74 346.33,-340.97 342.42,-343.17 338.15,-345.34 333.52,-347.48 328.57,-349.57 323.32,-351.62 317.79,-353.61 312.02,-355.54 306.02,-357.41 299.81,-359.2 293.42,-360.92 286.87,-362.57 280.18,-364.12 273.36,-365.59 266.44,-366.97 259.42,-368.26 252.33,-369.44 245.18,-370.52 237.97,-371.49 230.73,-372.36 223.45,-373.11 216.15,-373.75 208.84,-374.28 201.51,-374.69 194.19,-374.98 186.87,-375.15 179.56,-375.21 172.26,-375.14 164.98,-374.95 157.73,-374.65 150.5,-374.23 143.3,-373.68 136.15,-373.03 129.04,-372.25 121.98,-371.37 114.98,-370.37 108.06,-369.27 101.21,-368.06 94.45,-366.75 87.8,-365.35 81.26,-363.85 74.85,-362.25 68.59,-360.58 62.5,-358.82 56.58,-356.99 50.87,-355.08 45.39,-353.11 40.14,-351.08 35.16,-348.99 30.47,-346.86 26.09,-344.68 22.05,-342.47 18.36,-340.22 15.06,-337.95 12.16,-335.66 9.69,-333.36 7.66,-331.06 6.11,-328.75 5.04,-326.45 4.48,-324.17 4.45,-321.91 4.95,-319.67 6.01,-317.47 7.62,-315.31 9.81,-313.19 12.57,-311.12 15.91,-309.11 19.82,-307.16 24.31,-305.28 29.36,-303.48 34.98,-301.75 41.14,-300.1 47.83,-298.54 55.04,-297.08 62.74,-295.7 70.9,-294.43 79.5,-293.26 88.52,-292.2 97.91,-291.25 107.65,-290.4 117.69,-289.67 128,-289.06 138.54,-288.56 149.26,-288.18 160.13,-287.93 171.09,-287.79 182.1,-287.77 193.12,-287.87 204.1,-288.09"/>
<text text-anchor="middle" x="181.76" y="-327.7" font-family="sans-serif" font-size="16.00">GestionOrdenesContext</text>
</g>
<!-- CatalogProductosContext&#45;&gt;GestionOrdenesContext -->
<g id="edge1" class="edge">
<title>CatalogProductosContext&#45;&gt;GestionOrdenesContext</title>
<path fill="none" stroke="black" stroke-width="2" d="M181.76,-428.26C181.76,-411.13 181.76,-391.94 181.76,-375.27"/>
<text text-anchor="middle" x="257.26" y="-400.71" font-family="sans-serif" font-size="12.00"> &#160;&#160;&#160;&#160;&#160;&#160;&#160;&#160;&#160;&#160;&#160;&#160;&#160;&#160;&#160;&#160;&#160;&#160;&#160;&#160;&#160;&#160;&#160;&#160;&#160;&#160;&#160;&#160;&#160;&#160;&#160;&#160;&#160;&#160;&#160;&#160;&#160;&#160;&#160;</text>
<polygon fill="white" stroke="transparent" points="174.76,-366.27 174.76,-383.27 188.76,-383.27 188.76,-366.27 174.76,-366.27"/>
<text text-anchor="start" x="176.76" y="-371.67" font-family="sans-serif" font-size="12.00">D</text>
<polygon fill="white" stroke="transparent" points="157.76,-418.26 157.76,-437.26 173.76,-437.26 173.76,-418.26 157.76,-418.26"/>
<polyline fill="none" stroke="black" points="173.76,-418.26 173.76,-437.26 "/>
<text text-anchor="start" x="160.76" y="-424.66" font-family="sans-serif" font-size="12.00">U</text>
<polygon fill="white" stroke="transparent" points="173.76,-418.26 173.76,-437.26 206.76,-437.26 206.76,-418.26 173.76,-418.26"/>
<polygon fill="none" stroke="black" points="173.76,-418.26 173.76,-437.26 206.76,-437.26 206.76,-418.26 173.76,-418.26"/>
<text text-anchor="start" x="176.76" y="-424.66" font-family="sans-serif" font-size="12.00">OHS</text>
</g>
<!-- GestionPagosContext -->
<g id="node3" class="node">
<title>GestionPagosContext</title>
<polygon fill="none" stroke="black" stroke-width="2" points="313.53,-208.16 308.56,-210.64 303.25,-213.05 297.63,-215.37 291.72,-217.59 285.54,-219.71 279.11,-221.71 272.46,-223.59 265.59,-225.34 258.55,-226.95 251.34,-228.42 244,-229.74 236.54,-230.9 228.99,-231.91 221.36,-232.76 213.68,-233.44 205.97,-233.96 198.25,-234.32 190.53,-234.51 182.84,-234.53 175.2,-234.39 167.61,-234.1 160.11,-233.64 152.7,-233.04 145.4,-232.28 138.23,-231.38 131.19,-230.35 124.31,-229.18 117.59,-227.89 111.06,-226.49 104.71,-224.97 98.57,-223.35 92.64,-221.64 86.93,-219.84 81.46,-217.96 76.23,-216.02 71.26,-214.01 66.55,-211.95 62.11,-209.85 57.95,-207.71 54.08,-205.54 50.51,-203.35 47.25,-201.14 44.29,-198.93 41.66,-196.71 39.36,-194.5 37.39,-192.3 35.76,-190.11 34.48,-187.95 33.55,-185.81 32.98,-183.7 32.78,-181.62 32.94,-179.58 33.48,-177.58 34.39,-175.62 35.68,-173.7 37.35,-171.83 39.4,-170 41.84,-168.23 44.65,-166.5 47.84,-164.83 51.41,-163.2 55.35,-161.63 59.66,-160.12 64.33,-158.66 69.35,-157.25 74.71,-155.91 80.41,-154.61 86.43,-153.38 92.75,-152.21 99.37,-151.1 106.27,-150.05 113.43,-149.07 120.84,-148.15 128.47,-147.31 136.29,-146.53 144.3,-145.83 152.47,-145.2 160.77,-144.65 169.18,-144.19 177.67,-143.81 186.21,-143.52 194.78,-143.32 203.35,-143.21 211.89,-143.2 220.38,-143.3 228.78,-143.5 237.07,-143.8 245.21,-144.22 253.18,-144.74 260.95,-145.39 268.5,-146.14 275.8,-147.02 282.81,-148.01 289.53,-149.13 295.92,-150.36 301.96,-151.71 307.63,-153.18 312.91,-154.77 317.78,-156.47 322.24,-158.28 326.25,-160.2 329.82,-162.22 332.92,-164.35 335.55,-166.56 337.71,-168.87 339.38,-171.25 340.56,-173.71 341.26,-176.23 341.47,-178.81 341.19,-181.43 340.44,-184.1 339.21,-186.8 337.51,-189.51 335.35,-192.23 332.75,-194.96 329.72,-197.67 326.26,-200.35 322.4,-203 318.15,-205.61 313.53,-208.16"/>
<text text-anchor="middle" x="181.76" y="-182.03" font-family="sans-serif" font-size="16.00">GestionPagosContext</text>
</g>
<!-- GestionOrdenesContext&#45;&gt;GestionPagosContext -->
<g id="edge2" class="edge">
<title>GestionOrdenesContext&#45;&gt;GestionPagosContext</title>
<path fill="none" stroke="black" stroke-width="2" d="M181.76,-287.39C181.76,-270.78 181.76,-251.71 181.76,-234.68"/>
<text text-anchor="middle" x="216.26" y="-256.08" font-family="sans-serif" font-size="12.00">Partnership</text>
</g>
<!-- GestionClientesContext -->
<g id="node4" class="node">
<title>GestionClientesContext</title>
<polygon fill="none" stroke="black" stroke-width="2" points="719.27,-156.33 726.69,-158.42 733.72,-160.57 740.34,-162.79 746.51,-165.05 752.22,-167.36 757.43,-169.7 762.13,-172.07 766.29,-174.46 769.89,-176.86 772.93,-179.26 775.38,-181.65 777.24,-184.03 778.5,-186.39 779.16,-188.72 779.2,-191.02 778.64,-193.28 777.48,-195.5 775.73,-197.66 773.38,-199.77 770.47,-201.82 766.99,-203.81 762.97,-205.73 758.43,-207.58 753.39,-209.35 747.87,-211.05 741.89,-212.67 735.49,-214.21 728.7,-215.67 721.54,-217.05 714.04,-218.34 706.23,-219.54 698.15,-220.67 689.84,-221.7 681.32,-222.65 672.62,-223.51 663.78,-224.28 654.84,-224.97 645.82,-225.57 636.75,-226.08 627.67,-226.5 618.61,-226.84 609.59,-227.08 600.64,-227.24 591.79,-227.32 583.06,-227.3 574.47,-227.2 566.04,-227 557.8,-226.72 549.77,-226.35 541.95,-225.89 534.36,-225.33 527.02,-224.69 519.94,-223.96 513.13,-223.14 506.6,-222.22 500.35,-221.22 494.4,-220.13 488.74,-218.94 483.38,-217.67 478.33,-216.31 473.59,-214.86 469.15,-213.32 465.03,-211.7 461.22,-210 457.73,-208.21 454.54,-206.35 451.67,-204.42 449.12,-202.41 446.88,-200.34 444.95,-198.21 443.34,-196.01 442.05,-193.77 441.08,-191.48 440.43,-189.14 440.09,-186.78 440.08,-184.38 440.4,-181.97 441.05,-179.54 442.02,-177.1 443.33,-174.67 444.98,-172.25 446.97,-169.85 449.3,-167.47 451.98,-165.13 455,-162.84 458.38,-160.6 462.11,-158.43 466.19,-156.32 470.62,-154.3 475.4,-152.36 480.53,-150.52 486.01,-148.78 491.83,-147.15 497.99,-145.64 504.48,-144.26 511.28,-143 518.4,-141.88 525.81,-140.9 533.51,-140.06 541.48,-139.37 549.7,-138.84 558.15,-138.46 566.82,-138.23 575.67,-138.16 584.69,-138.24 593.84,-138.48 603.11,-138.87 612.46,-139.42 621.87,-140.12 631.29,-140.96 640.7,-141.95 650.07,-143.07 659.36,-144.33 668.54,-145.71 677.57,-147.22 686.41,-148.84 695.04,-150.57 703.41,-152.4 711.5,-154.33 719.27,-156.33"/>
<text text-anchor="middle" x="596.76" y="-182.03" font-family="sans-serif" font-size="16.00">GestionClientesContext</text>
</g>
<!-- GestionOrdenesContext&#45;&gt;GestionClientesContext -->
<g id="edge3" class="edge">
<title>GestionOrdenesContext&#45;&gt;GestionClientesContext</title>
<path fill="none" stroke="black" stroke-width="2" d="M286.75,-294.15C351.7,-271.67 434.56,-242.98 498.26,-220.93"/>
<text text-anchor="middle" x="436.26" y="-256.08" font-family="sans-serif" font-size="12.00">Partnership</text>
</g>
<!-- GestionEnviosContext -->
<g id="node5" class="node">
<title>GestionEnviosContext</title>
<polygon fill="none" stroke="black" stroke-width="2" points="597.74,-87.92 587.46,-87.98 577.25,-87.92 567.13,-87.73 557.16,-87.43 547.37,-87 537.81,-86.46 528.5,-85.79 519.48,-85.01 510.79,-84.11 502.46,-83.1 494.51,-81.97 486.97,-80.74 479.87,-79.4 473.23,-77.97 467.06,-76.43 461.38,-74.81 456.2,-73.09 451.53,-71.29 447.39,-69.41 443.77,-67.46 440.67,-65.45 438.1,-63.37 436.04,-61.23 434.51,-59.05 433.48,-56.82 432.94,-54.56 432.89,-52.26 433.31,-49.94 434.19,-47.61 435.5,-45.27 437.23,-42.92 439.37,-40.58 441.89,-38.24 444.77,-35.93 448,-33.64 451.54,-31.38 455.39,-29.16 459.52,-26.98 463.91,-24.85 468.55,-22.78 473.4,-20.77 478.47,-18.83 483.72,-16.96 489.15,-15.17 494.74,-13.46 500.47,-11.84 506.34,-10.31 512.33,-8.88 518.42,-7.54 524.62,-6.31 530.91,-5.19 537.28,-4.18 543.73,-3.27 550.25,-2.49 556.84,-1.81 563.49,-1.26 570.19,-0.82 576.95,-0.5 583.75,-0.3 590.6,-0.22 597.48,-0.26 604.4,-0.42 611.34,-0.69 618.31,-1.09 625.29,-1.59 632.28,-2.22 639.27,-2.95 646.24,-3.79 653.2,-4.74 660.12,-5.8 667,-6.95 673.81,-8.21 680.55,-9.55 687.19,-10.99 693.73,-12.51 700.13,-14.12 706.38,-15.8 712.45,-17.56 718.33,-19.39 724,-21.28 729.41,-23.23 734.56,-25.23 739.42,-27.28 743.96,-29.38 748.17,-31.52 752,-33.68 755.44,-35.88 758.47,-38.09 761.07,-40.33 763.2,-42.57 764.86,-44.81 766.03,-47.06 766.68,-49.3 766.8,-51.53 766.38,-53.73 765.41,-55.92 763.89,-58.07 761.8,-60.19 759.14,-62.26 755.92,-64.3 752.13,-66.27 747.79,-68.2 742.89,-70.05 737.46,-71.85 731.51,-73.56 725.06,-75.21 718.12,-76.77 710.72,-78.24 702.89,-79.63 694.66,-80.92 686.05,-82.11 677.1,-83.2 667.84,-84.18 658.31,-85.06 648.56,-85.82 638.61,-86.48 628.51,-87.02 618.31,-87.44 608.03,-87.74 597.74,-87.92"/>
<text text-anchor="middle" x="596.76" y="-40.19" font-family="sans-serif" font-size="16.00">GestionEnviosContext</text>
</g>
<!-- GestionClientesContext&#45;&gt;GestionEnviosContext -->
<g id="edge4" class="edge">
<title>GestionClientesContext&#45;&gt;GestionEnviosContext</title>
<path fill="none" stroke="black" stroke-width="2" d="M596.76,-138.27C596.76,-122.06 596.76,-103.96 596.76,-88.05"/>
<text text-anchor="middle" x="631.26" y="-109.39" font-family="sans-serif" font-size="12.00">Partnership</text>
</g>
<!-- GestionAutorizacionAutenticacionContext -->
<g id="node6" class="node">
<title>GestionAutorizacionAutenticacionContext</title>
<polygon fill="none" stroke="black" stroke-width="2" points="911.82,-342.56 907.62,-345.34 902.72,-348.06 897.14,-350.73 890.91,-353.33 884.04,-355.85 876.55,-358.28 868.47,-360.61 859.81,-362.83 850.62,-364.94 840.91,-366.92 830.72,-368.76 820.07,-370.47 808.99,-372.03 797.51,-373.45 785.67,-374.71 773.49,-375.81 761.02,-376.76 748.27,-377.55 735.29,-378.18 722.11,-378.65 708.76,-378.96 695.28,-379.12 681.7,-379.12 668.06,-378.97 654.38,-378.67 640.71,-378.23 627.08,-377.65 613.51,-376.94 600.05,-376.11 586.73,-375.15 573.58,-374.08 560.63,-372.9 547.91,-371.62 535.46,-370.25 523.3,-368.8 511.47,-367.26 500,-365.65 488.91,-363.98 478.23,-362.25 468,-360.47 458.23,-358.65 448.95,-356.79 440.19,-354.89 431.97,-352.97 424.31,-351.03 417.24,-349.07 410.77,-347.1 404.93,-345.13 399.72,-343.14 395.18,-341.16 391.3,-339.18 388.11,-337.21 385.62,-335.24 383.84,-333.29 382.77,-331.34 382.42,-329.41 382.79,-327.5 383.9,-325.6 385.73,-323.72 388.3,-321.86 391.59,-320.03 395.59,-318.21 400.32,-316.41 405.74,-314.64 411.86,-312.9 418.65,-311.18 426.11,-309.49 434.21,-307.84 442.93,-306.21 452.26,-304.62 462.16,-303.07 472.62,-301.57 483.6,-300.1 495.08,-298.69 507.02,-297.33 519.39,-296.02 532.16,-294.77 545.28,-293.6 558.73,-292.49 572.46,-291.45 586.43,-290.5 600.61,-289.63 614.95,-288.86 629.4,-288.18 643.93,-287.6 658.49,-287.13 673.04,-286.77 687.54,-286.53 701.93,-286.4 716.19,-286.41 730.26,-286.54 744.1,-286.81 757.67,-287.21 770.93,-287.75 783.84,-288.43 796.37,-289.26 808.47,-290.22 820.11,-291.33 831.25,-292.58 841.87,-293.97 851.93,-295.5 861.4,-297.16 870.26,-298.95 878.48,-300.87 886.04,-302.92 892.92,-305.07 899.1,-307.34 904.56,-309.71 909.3,-312.17 913.29,-314.71 916.54,-317.33 919.03,-320.02 920.77,-322.76 921.74,-325.55 921.96,-328.37 921.42,-331.21 920.12,-334.06 918.09,-336.91 915.32,-339.75 911.82,-342.56"/>
<text text-anchor="middle" x="650.76" y="-327.7" font-family="sans-serif" font-size="16.00">GestionAutorizacionAutenticacionContext</text>
</g>
<!-- GestionAutorizacionAutenticacionContext&#45;&gt;GestionClientesContext -->
<g id="edge5" class="edge">
<title>GestionAutorizacionAutenticacionContext&#45;&gt;GestionClientesContext</title>
<path fill="none" stroke="black" stroke-width="2" d="M634.7,-287.78C627.49,-268.59 619.02,-246.07 611.92,-227.17"/>
<text text-anchor="middle" x="701.26" y="-256.08" font-family="sans-serif" font-size="12.00"> &#160;&#160;&#160;&#160;&#160;&#160;&#160;&#160;&#160;&#160;&#160;&#160;&#160;&#160;&#160;&#160;&#160;&#160;&#160;&#160;&#160;&#160;&#160;&#160;&#160;&#160;&#160;&#160;&#160;&#160;&#160;&#160;&#160;&#160;&#160;&#160;&#160;&#160;&#160;</text>
<polygon fill="white" stroke="transparent" points="592.92,-217.17 592.92,-236.17 608.92,-236.17 608.92,-217.17 592.92,-217.17"/>
<polyline fill="none" stroke="black" points="608.92,-217.17 608.92,-236.17 "/>
<text text-anchor="start" x="595.92" y="-223.57" font-family="sans-serif" font-size="12.00">D</text>
<polygon fill="white" stroke="transparent" points="608.92,-217.17 608.92,-236.17 630.92,-236.17 630.92,-217.17 608.92,-217.17"/>
<polygon fill="none" stroke="black" points="608.92,-217.17 608.92,-236.17 630.92,-236.17 630.92,-217.17 608.92,-217.17"/>
<text text-anchor="start" x="611.92" y="-223.57" font-family="sans-serif" font-size="12.00">CF</text>
<polygon fill="white" stroke="transparent" points="616.7,-277.78 616.7,-296.78 632.7,-296.78 632.7,-277.78 616.7,-277.78"/>
<polyline fill="none" stroke="black" points="632.7,-277.78 632.7,-296.78 "/>
<text text-anchor="start" x="619.7" y="-284.18" font-family="sans-serif" font-size="12.00">U</text>
<polygon fill="white" stroke="transparent" points="632.7,-277.78 632.7,-296.78 653.7,-296.78 653.7,-277.78 632.7,-277.78"/>
<polygon fill="none" stroke="black" points="632.7,-277.78 632.7,-296.78 653.7,-296.78 653.7,-277.78 632.7,-277.78"/>
<text text-anchor="start" x="635.7" y="-284.18" font-family="sans-serif" font-size="12.00">PL</text>
</g>
</g>
</svg>
